<svg xmlns="http://www.w3.org/2000/svg" viewBox="0 0 16 16">
<defs><style>.icon-canvas-transparent,.icon-vs-out{fill:#f6f6f6}.icon-canvas-transparent{opacity:0}.icon-vs-bg{fill:#424242}</style></defs>
<title>configure</title><path class="icon-canvas-transparent" d="M16 0v16H0V0z" id="canvas"/><path class="icon-vs-bg" d="M12.876 9.521L15 9.167V6.834l-2.121-.354a5.12 5.12 0 0 0-.354-.854l1.25-1.75-1.65-1.65-1.752 1.251c-.137-.072-.262-.159-.408-.219s-.3-.087-.444-.133L9.167 1H6.834L6.48 3.121a5.118 5.118 0 0 0-.854.354l-1.75-1.25-1.65 1.65 1.251 1.752c-.072.137-.159.262-.219.408s-.087.3-.133.444L1 6.833v2.333l2.121.354a5.122 5.122 0 0 0 .354.854l-1.25 1.75 1.65 1.65 1.752-1.252c.137.072.262.159.408.22s.3.087.444.133L6.833 15h2.333l.354-2.121a5.121 5.121 0 0 0 .854-.354l1.75 1.25 1.65-1.65-1.252-1.752c.072-.137.159-.263.219-.409s.089-.295.135-.443zM8 10.212A2.212 2.212 0 1 1 10.212 8 2.212 2.212 0 0 1 8 10.212z" id="iconBg"/></svg>